# xmcd
#
# Track frame offsets: 
#        150
#        33277
#        59295
#        68542
#        88627
#        106822
#        133690
#        159555
#        162977
#        205045
#        215575
#        247270
#        278640
#
# Disc length: 4074 seconds
#
# Revision: 11
# Processed by: cddbd v1.5.2PL0 Copyright (c) Steve Scherf et al.
# Submitted via: ExactAudioCopy v0.99pb5
#
DISCID=b30fe80d
DTITLE=Propellerheads - Decksandrumsandrockandroll
DYEAR=1998
DGENRE=Techno
TTITLE0=Take California
TTITLE1=Velvet Pants
TTITLE2=Better
TTITLE3=360° (Oh Yeah) (Featuring De La Soul)
TTITLE4=History Repeating (Featuring Shirley Bassey)
TTITLE5=Winning Style
TTITLE6=Bang On!
TTITLE7=A Number Of Microphones
TTITLE8=On Her Majesty's Secret Service
TTITLE9=Bigger
TTITLE10=Cominagetcha
TTITLE11=Spybreak!
TTITLE12=You Want It Back (Featuring Jungle Brothers)
EXTD=YEAR: 1998
EXTT0=
EXTT1=
EXTT2=
EXTT3=
EXTT4=
EXTT5=
EXTT6=
EXTT7=
EXTT8=
EXTT9=
EXTT10=
EXTT11=
EXTT12=
PLAYORDER=
